<?xml version="1.0"?><svg id="a" xmlns="http://www.w3.org/2000/svg" viewBox="0 0 200 200"><defs></defs><path class="b" d="m99.88,121.96c-4.67,13.15-11.52,23.93-20.55,33.31-4.45,4.63-10.27,3.93-12.25-1.35-1.23-3.3.23-5.78,2.43-8.04,11.29-11.61,18.39-25.35,20.8-41.4,3.56-23.75-2.67-44.69-18.33-62.86-1.02-1.18-2.18-2.23-3.21-3.4-2.8-3.15-2.84-7.13-.14-9.81,2.74-2.72,6.95-2.59,10.08.58,8.58,8.7,15.22,18.71,19.76,30.07.41,1.02.85,2.03,1.16,2.78,3.78-6.79,7.25-13.74,11.41-20.24,2.85-4.45,6.52-8.4,10.09-12.34,3.15-3.48,7.47-3.63,10.3-.76,2.73,2.77,2.52,6.71-.64,10.02-15.5,16.24-23.08,35.51-22,57.98.92,19.06,8.39,35.36,21.35,49.29,1.49,1.6,3.17,4.06,2.95,5.91-.25,2.17-2.07,4.74-3.96,5.99-2.61,1.72-5.47.53-7.71-1.71-8.1-8.08-14.44-17.34-18.93-27.86-.76-1.77-1.49-3.54-2.6-6.16Z"></path><path class="b" d="m78.75,80.05c1.35,7.44,1.48,15.06.29,22.53-2.36,14.9-8.73,26.88-19.3,36.96-1.74,1.66-5.22,2.68-7.53,2.21-1.86-.38-4.27-3.4-4.4-5.38-.15-2.25,1.47-5.15,3.19-6.91,10.14-10.33,15.55-22.6,15.56-37.02,0-14.59-5.46-27.04-15.97-37.19-2.84-2.74-4.16-5.63-2.22-9.33,2.16-4.12,7.3-4.59,11.24-.86,9.47,8.99,15.8,19.86,18.66,32.61.18.8.34,1.6.48,2.39Z"></path><path class="b" d="m41.77,92.45c-.02-7.66-2.86-14.11-8.41-19.38-.94-.89-1.99-1.67-2.92-2.57-2.88-2.78-3.2-6.51-.84-9.41,2.31-2.84,6.08-3.27,9.41-.88,8.52,6.13,13.81,14.52,15.55,24.72,2.65,15.51-2.04,28.66-14.33,38.79-4.07,3.35-8.08,3.28-10.64.11-2.67-3.32-1.96-6.99,2.01-10.45,7.05-6.13,10.16-12.53,10.18-20.93Z"></path><path class="b" d="m144.66,90.18c.4-10.57,5.32-21.02,15.14-29.06,4.05-3.32,7.93-3.2,10.62.17,2.67,3.32,1.88,7.19-2.12,10.4-13.72,11.02-13.66,30.64.12,41.75,3.8,3.06,4.61,6.86,2.16,10.12-2.6,3.46-6.56,3.66-10.61.52-9.58-7.41-15.41-19.53-15.31-33.89Z"></path><circle class="b" cx="15.4" cy="92.73" r="15.13"></circle><path class="b" d="m121.28,80.05c-1.35,7.44-1.48,15.06-.29,22.53,2.36,14.9,8.73,26.88,19.3,36.96,1.74,1.66,5.22,2.68,7.53,2.21,1.86-.38,4.27-3.4,4.4-5.38.15-2.25-1.47-5.15-3.19-6.91-10.14-10.33-15.55-22.6-15.56-37.02,0-14.59,5.46-27.04,15.97-37.19,2.84-2.74,4.16-5.63,2.22-9.33-2.16-4.12-7.3-4.59-11.24-.86-9.47,8.99-15.8,19.86-18.66,32.61-.18.8-.34,1.6-.48,2.39Z"></path><circle class="b" cx="184.6" cy="92.5" r="15.13"></circle></svg>